<?xml version="1.0" encoding="utf-8"?>
<!-- Generator: Adobe Illustrator 18.0.0, SVG Export Plug-In . SVG Version: 6.00 Build 0)  -->
<!DOCTYPE svg PUBLIC "-//W3C//DTD SVG 1.1//EN" "http://www.w3.org/Graphics/SVG/1.1/DTD/svg11.dtd">
<svg version="1.1" id="Layer_1" xmlns="http://www.w3.org/2000/svg" xmlns:xlink="http://www.w3.org/1999/xlink" x="0px" y="0px"
	 viewBox="0 -0.4 790 640.8" enable-background="new 0 -0.4 790 640.8" xml:space="preserve">
<circle id="ring" fill="none" stroke="#EE7D11" stroke-width="114" cx="395" cy="320" r="263.4"/>
<path id="bar" fill="none" stroke="#004894" stroke-width="130" d="M0,320h790"/>
<g>
	<g id="O1">
		<path id="O" fill="#FFFFFF" d="M113.6,354.3c18.9-5,30.2-24.2,25.1-42.9c-5.1-18.7-24.5-29.8-43.5-24.8s-30.2,24.2-25.1,42.9
			c4.5,16.6,20.6,27.6,38,25.8 M118.8,336.1c-8.5,7.9-21.8,7.5-29.7-1s-7.5-21.8,1-29.7c8.5-7.9,21.8-7.5,29.7,1
			c7.5,8.1,7.5,20.6,0,28.7"/>
	</g>
	<path id="V" fill="#FFFFFF" d="M190.2,321.6c6.8-17.9,12.5-32.9,12.7-33.5c0.4-0.9-0.2-1-7-1l-7.4,0l-8.2,22.7
		c-4.5,12.5-8.4,22.9-8.6,23.1c-0.2,0.2-4.2-10-8.9-22.7l-8.6-23.1H147c-4,0-7.3,0.1-7.3,0.2c0,0.2,23.9,61.7,25.6,66
		c0.2,0.5,2.1,0.7,6.4,0.7h6.1L190.2,321.6L190.2,321.6z"/>
	<path id="E" fill="#FFFFFF" d="M253.5,348.1v-6H238h-15.4v-8.6v-8.6h11.7h11.7l-0.2-6.1l-0.2-6.1l-11.6-0.2l-11.6-0.2v-6.6v-6.6
		h14.3h14.3v-6v-6H230h-21.2v33.5v33.5h22.3h22.3L253.5,348.1L253.5,348.1z"/>
	<g id="R1">
		<path id="R" fill="#FFFFFF" d="M274.6,340.9v-13.2l3,0l3,0l8.9,12.9c4.9,7.1,9.1,13,9.5,13.1c0.3,0.1,4,0.2,8,0.1l7.4-0.2
			l-10.4-14.6l-10.4-14.6l3.1-1.7c8.7-4.7,11.8-16.2,6.9-25.5c-2.1-4-5.3-6.7-10.1-8.6c-3-1.2-4.3-1.3-17.7-1.5l-14.4-0.2v33.5v33.5
			h6.6h6.6V340.9L274.6,340.9z M274.6,307.5v-8.3l5.6,0c8.8,0,12.2,2.2,12.2,8.1c0,5.6-3.5,8-12.2,8.4l-5.6,0.2V307.5L274.6,307.5z"
			/>
	</g>
	<path id="G" fill="#FFFFFF" d="M360.9,354.3c2-0.4,5.9-1.9,8.7-3.2l5.1-2.4v-16.2v-16.2h-12h-12v6v6h5.4h5.4v6.8v6.8l-3.1,0.7
		c-5,1.1-13.2,0.5-17.1-1.3c-4.6-2.1-9.1-6.5-11.1-10.9c-1.5-3.2-1.6-4.2-1.6-9.6c0-5.4,0.2-6.4,1.6-9.5c3.1-6.7,9.8-11.6,17.6-12.9
		c7-1.1,17.6,1.5,24.1,6c0.7,0.5,1.5,0.9,1.7,0.9s0.4-3.2,0.3-7l-0.2-7l-4.6-1.8c-6.3-2.5-11.8-3.6-18.4-3.6c-6.6,0-11.6,1.1-17,3.7
		c-12,5.8-19.1,17.3-19.2,30.9c0,15.6,9.3,28.2,24.4,33.1C345.3,355.8,353.4,356,360.9,354.3L360.9,354.3z"/>
	<g id="R2">
		<path id="R_1_" fill="#FFFFFF" d="M399.3,340.9v-13.2l3,0l3,0l8.9,12.9c4.9,7.1,9.1,13,9.5,13.1c0.3,0.1,4,0.2,8,0.1l7.4-0.2
			l-10.4-14.6l-10.4-14.6l3.1-1.7c8.7-4.7,11.8-16.2,6.9-25.5c-2.1-4-5.3-6.7-10.1-8.6c-3-1.2-4.3-1.3-17.7-1.5l-14.4-0.2v33.5v33.5
			h6.6h6.6V340.9L399.3,340.9z M399.3,307.5v-8.3l5.6,0c8.8,0,12.2,2.2,12.2,8.1c0,5.6-3.5,8-12.2,8.4l-5.6,0.2V307.5L399.3,307.5z"
			/>
	</g>
	<g id="O2">
		<path id="O_1_" fill="#FFFFFF" d="M483.1,354.3c18.9-5,30.2-24.2,25.1-42.9c-5.1-18.7-24.5-29.8-43.5-24.8s-30.2,24.2-25.1,42.9
			c4.5,16.6,20.6,27.6,38,25.8 M488.3,336.1c-8.5,7.9-21.8,7.5-29.7-1c-7.9-8.5-7.5-21.8,1-29.7c8.5-7.9,21.8-7.5,29.7,1
			c7.5,8.1,7.5,20.6,0,28.7"/>
	</g>
	<path id="U" fill="#FFFFFF" d="M556.6,354.3c6.9-1.9,13.4-6.8,17.2-13.1c3.7-6.1,3.9-8.2,4-32.4l0-21.6h-6.5h-6.5l-0.2,20.7
		c-0.3,23.4-0.4,24.6-4.4,29.2c-3.3,3.8-6.7,5.2-12,5.3c-7.1,0-12.4-3.4-15.3-9.8c-0.9-1.9-1-4.8-1.2-23.8l-0.2-21.6h-6.8h-6.8
		l0,20.4c0,22.6,0.3,25.7,3.4,31.9C527.3,352.1,542.1,358.2,556.6,354.3L556.6,354.3z"/>
	<path id="N" fill="#FFFFFF" d="M602.5,331.8l0.1-22.3l17.2,22.3l17.2,22.3l6.7,0l6.7,0v-33.5v-33.5h-6.6h-6.6l-0.1,22.6l-0.1,22.6
		l-17.4-22.6l-17.4-22.6h-6.7h-6.7v33.5v33.5h6.9h6.9L602.5,331.8L602.5,331.8z"/>
	<path id="D" fill="#FFFFFF" d="M691.4,353.2c14.4-3,24.5-11.9,27.9-24.7c1.1-4.2,1.1-13.2,0-17.3c-2.4-8.9-8.1-15.9-16.3-20
		c-7.1-3.5-11.2-4.1-27.5-4.1h-13.7v33.5v33.5h12.6C683.7,354.1,688.2,353.8,691.4,353.2L691.4,353.2z M675,320.6v-21.4l6.4,0
		c9.2,0,14.1,1.5,19,5.8c1.4,1.2,3.3,3.7,4.2,5.5c1.5,3,1.6,3.8,1.6,9.8c0,6-0.1,6.8-1.5,9.4c-1.9,3.5-6.5,8-10,9.5
		c-3.8,1.7-9.6,2.8-15,2.8l-4.7,0L675,320.6L675,320.6z"/>
</g>
</svg>
