<?xml version="1.0" encoding="UTF-8" standalone="no"?>
<svg xmlns="http://www.w3.org/2000/svg" xmlns:xlink="http://www.w3.org/1999/xlink" width="790" height="640">
 <circle id="ring" style="fill:#f9f9f9;stroke:#00a4a7;stroke-width:114" cx="395" cy="320" r="263.4"/>
 <path id="bar" style="fill:none;stroke:#004894;stroke-width:130" d="m 0,320 h 790"/>
 <g fill="#fff">
  <path id="D" d="m 294.125,285.59375 0,34.6147 c 0,18.90264 0.12945,34.26043 0.28125,34.41655 0.15181,0.15612 6.15847,0.19999 13.34375,0.0937 9.65477,-0.14276 13.84455,-0.35533 16.0625,-0.78125 9.21251,-1.76915 16.54971,-5.51116 21.875,-11.15625 6.44229,-6.82917 9.50343,-15.42219 9.03125,-25.3125 -0.72774,-15.24291 -9.98554,-26.56877 -25.0625,-30.625 l -3.6875,-1 -15.90625,-0.125 z m 14,11.71875 6.53125,0.21875 c 7.45419,0.23639 10.70071,0.89262 15.125,3.0625 9.96672,4.88815 14.00804,18.21772 8.84375,29.125 -1.65715,3.5 -5.77273,7.51835 -9.59375,9.375 -4.3808,2.12865 -7.99356,2.89349 -14.9375,3.125 l -5.96875,0.1875 0,-22.53125 z"/>
  <path id="L" d="m 417.04561,348.204313 0,-6.62408 -14.35215,0 -14.35216,0 0,-27.96831 0,-27.96831 -6.80807,0 -6.80808,0 0,36.74966 0,32.43511 21.16023,0 21.16023,0 z"/>
  <path id="R" d="m 448.69397,341.028233 0,-13.80015 3.03603,0.002 3.03604,0.002 9.52367,13.79768 9.52367,13.79768 8.04852,0 c 4.42669,0 8.04854,-0.0741 8.04854,-0.16465 0,-0.0905 -4.84974,-6.99192 -10.77719,-15.33639 l -10.77718,-15.17176 2.56167,-1.28154 c 4.63999,-2.3213 8.27475,-6.80961 9.62601,-11.88651 0.68653,-2.57935 0.67918,-8.07397 -0.0144,-10.73663 -1.65124,-6.33957 -6.34243,-11.0956 -13.22236,-13.4051 l -2.97288,-0.99796 -14.62817,-0.12503 -14.62816,-0.12503 0,35.57409 0,33.65651 6.80807,0 6.80808,0 z m 0,-34.78182 0,-8.91616 5.61207,0.17356 c 4.61429,0.14269 5.98318,0.31701 7.69948,0.98049 7.34651,2.83996 7.1978,12.18962 -0.2474,15.55502 -1.58842,0.718 -2.6074,0.85166 -7.45208,0.9775 l -5.61207,0.14576 z"/>
 </g>
</svg>
